{"title":"La Sonora Dinamita - Que Lindo Cu... (h264/mp4)","uid":7502220,"size":98948528,"categoryP":"video","categoryS":"music_videos","magnet":"?xt=urn:btih:c70c57ca8bba6328d23bc007d3075b5d72c48a5d&amp;dn=La+Sonora+Dinamita+-+Que+Lindo+Cu...+%28h264%2Fmp4%29&amp;tr=udp%3A%2F%2Ftracker.openbittorrent.com%3A80&amp;tr=udp%3A%2F%2Fopen.demonii.com%3A1337&amp;tr=udp%3A%2F%2Ftracker.coppersurfer.tk%3A6969&amp;tr=udp%3A%2F%2Fexodus.desync.com%3A6969","seeders":2,"leechers":1,"uploader":"MusicVideos-HQ","files":1,"time":1344057901,"description":"General\n\nFormat                         : MPEG-4\nFormat profile                 : Base Media\nCodec ID                       : isom\nFile size                      : 94.4 MiB\nDuration                       : 3mn 46s\nOverall bit rate mode          : Variable\nOverall bit rate               : 3 502 Kbps\nEncoded date                   : UTC 2012-08-02 04:38:55\nTagged date                    : UTC 2012-08-02 04:38:55\n\nVideo\nID                             : 1\nFormat                         : AVC\nFormat/Info                    : Advanced Video Codec\nFormat profile                 : &lt;a class=&quot;__cf_email__&quot; href=&quot;/cdn-cgi/l/email-protection&quot; data-cfemail=&quot;99d1f0fef1d9d5aab7a9&quot;&gt;[email&amp;#160;protected]&lt;/a&gt;&lt;script cf-hash='f9e31' type=&quot;text/javascript&quot;&gt;\n/* &lt;![CDATA[ */!function(){try{var t=&quot;currentScript&quot;in document?document.currentScript:function(){for(var t=document.getElementsByTagName(&quot;script&quot;),e=t.length;e--;)if(t[e].getAttribute(&quot;cf-hash&quot;))return t[e]}();if(t&amp;&amp;t.previousSibling){var e,r,n,i,c=t.previousSibling,a=c.getAttribute(&quot;data-cfemail&quot;);if(a){for(e=&quot;&quot;,r=parseInt(a.substr(0,2),16),n=2;a.length-n;n+=2)i=parseInt(a.substr(n,2),16)^r,e+=String.fromCharCode(i);e=document.createTextNode(e),c.parentNode.replaceChild(e,c)}}}catch(u){}}();/* ]]&gt; */&lt;/script&gt;\nFormat settings, CABAC         : Yes\nFormat settings, ReFrames      : 2 frames\nCodec ID                       : avc1\nCodec ID/Info                  : Advanced Video Coding\nDuration                       : 3mn 45s\nBit rate                       : 3 312 Kbps\nMaximum bit rate               : 6 089 Kbps\nWidth                          : 720 pixels\nHeight                         : 480 pixels\nDisplay aspect ratio           : 4:3\nOriginal display aspect ratio  : 4:3\nFrame rate mode                : Constant\nFrame rate                     : 29.970 fps\nStandard                       : NTSC\nColor space                    : YUV\nChroma subsampling             : 4:2:0\nBit depth                      : 8 bits\nScan type                      : Progressive\nBits/(Pixel*Frame)             : 0.320\nStream size                    : 89.0 MiB (94%)\n\n\nAudio\nID                             : 2\nFormat                         : AAC\nFormat/Info                    : Advanced Audio Codec\nFormat profile                 : LC\nCodec ID                       : 40\nDuration                       : 3mn 46s\nBit rate mode                  : Variable\nBit rate                       : 192 Kbps\nMaximum bit rate               : 256 Kbps\nChannel(s)                     : 2 channels\nChannel positions              : Front: L R\nSampling rate                  : 48.0 KHz\nCompression mode               : Lossy\nDelay relative to video        : -667ms\nStream size                    : 5.20 MiB (6%)","torrent":{"xt":"urn:btih:c70c57ca8bba6328d23bc007d3075b5d72c48a5d","amp;dn":"La+Sonora+Dinamita+-+Que+Lindo+Cu...+%28h264%2Fmp4%29","amp;tr":["udp%3A%2F%2Ftracker.openbittorrent.com%3A80","udp%3A%2F%2Fopen.demonii.com%3A1337","udp%3A%2F%2Ftracker.coppersurfer.tk%3A6969","udp%3A%2F%2Fexodus.desync.com%3A6969"],"infoHash":"c70c57ca8bba6328d23bc007d3075b5d72c48a5d","infoHashBuffer":{"type":"Buffer","data":[199,12,87,202,139,186,99,40,210,59,192,7,211,7,91,93,114,196,138,93]},"announce":[],"urlList":[]}}